Normalized EMG Linear Envelopes
nRows=38
nColumns=17

endheader
time	        VM	        VL	        RF	       GRA	        TA	   ADDLONG	   SEMIMEM	      BFLH	        GM	        GL	       TFL	   GLUTMAX	   GLUTMED	      PIRI	    OBTINT	        QF	
3.48	  0.583292	  0.577746	  0.086660	  0.572661	  0.891453	  0.000000	  0.827350	  0.985602	  0.000000	  0.282454	  0.000000	  0.367676	  0.369885	  0.264022	  0.047364	  0.088688	
3.4805	  0.585850	  0.580546	  0.087419	  0.568938	  0.886546	  0.000000	  0.825415	  0.986954	  0.000000	  0.285843	  0.000000	  0.369231	  0.367393	  0.265387	  0.047216	  0.088748	
3.481	  0.588362	  0.583314	  0.088191	  0.565183	  0.881538	  0.000000	  0.823400	  0.988244	  0.000000	  0.289264	  0.000000	  0.370801	  0.364919	  0.266750	  0.047076	  0.088800	
3.4815	  0.590828	  0.586048	  0.088976	  0.561395	  0.876431	  0.000000	  0.821305	  0.989471	  0.000000	  0.292715	  0.000000	  0.372388	  0.362464	  0.268112	  0.046945	  0.088844	
3.482	  0.593248	  0.588748	  0.089774	  0.557575	  0.871229	  0.000000	  0.819130	  0.990634	  0.000000	  0.296197	  0.000000	  0.373991	  0.360033	  0.269471	  0.046821	  0.088881	
3.4825	  0.595621	  0.591416	  0.090587	  0.553726	  0.865931	  0.000000	  0.816876	  0.991730	  0.000000	  0.299708	  0.000000	  0.375609	  0.357626	  0.270827	  0.046705	  0.088910	
3.483	  0.597947	  0.594050	  0.091413	  0.549848	  0.860541	  0.000000	  0.814544	  0.992760	  0.000000	  0.303250	  0.000000	  0.377243	  0.355248	  0.272180	  0.046598	  0.088933	
3.4835	  0.600225	  0.596652	  0.092255	  0.545943	  0.855060	  0.000000	  0.812135	  0.993722	  0.000000	  0.306820	  0.000000	  0.378893	  0.352899	  0.273530	  0.046498	  0.088948	
3.484	  0.602454	  0.599221	  0.093110	  0.542014	  0.849490	  0.000000	  0.809652	  0.994617	  0.000000	  0.310419	  0.000000	  0.380557	  0.350582	  0.274875	  0.046405	  0.088956	
3.4845	  0.604634	  0.601757	  0.093981	  0.538064	  0.843831	  0.000000	  0.807098	  0.995444	  0.000000	  0.314047	  0.000000	  0.382235	  0.348299	  0.276216	  0.046321	  0.088958	
3.485	  0.606762	  0.604263	  0.094867	  0.534095	  0.838086	  0.000000	  0.804474	  0.996202	  0.000000	  0.317703	  0.000000	  0.383928	  0.346053	  0.277552	  0.046244	  0.088952	
3.4855	  0.608838	  0.606737	  0.095768	  0.530109	  0.832255	  0.000000	  0.801785	  0.996892	  0.000000	  0.321387	  0.000000	  0.385635	  0.343844	  0.278882	  0.046175	  0.088940	
3.486	  0.610861	  0.609180	  0.096685	  0.526108	  0.826339	  0.000000	  0.799031	  0.997513	  0.000000	  0.325098	  0.000000	  0.387354	  0.341675	  0.280207	  0.046114	  0.088922	
3.4865	  0.612830	  0.611593	  0.097617	  0.522096	  0.820341	  0.000000	  0.796216	  0.998065	  0.000000	  0.328835	  0.000000	  0.389088	  0.339548	  0.281526	  0.046060	  0.088897	
3.487	  0.614741	  0.613975	  0.098565	  0.518073	  0.814260	  0.000000	  0.793343	  0.998549	  0.000000	  0.332598	  0.000000	  0.390834	  0.337463	  0.282838	  0.046013	  0.088866	
3.4875	  0.616595	  0.616328	  0.099530	  0.514042	  0.808099	  0.000000	  0.790413	  0.998964	  0.000000	  0.336387	  0.000000	  0.392593	  0.335423	  0.284145	  0.045974	  0.088828	
3.488	  0.618389	  0.618650	  0.100510	  0.510006	  0.801858	  0.000000	  0.787429	  0.999310	  0.000000	  0.340201	  0.000000	  0.394366	  0.333428	  0.285445	  0.045943	  0.088785	
3.4885	  0.620122	  0.620943	  0.101507	  0.505966	  0.795539	  0.000000	  0.784395	  0.999587	  0.000000	  0.344039	  0.000000	  0.396151	  0.331481	  0.286737	  0.045919	  0.088736	
3.489	  0.621793	  0.623206	  0.102520	  0.501926	  0.789142	  0.000000	  0.781312	  0.999794	  0.000000	  0.347901	  0.000000	  0.397949	  0.329582	  0.288022	  0.045903	  0.088681	
3.4895	  0.623401	  0.625439	  0.103549	  0.497887	  0.782670	  0.000000	  0.778183	  0.999932	  0.000000	  0.351787	  0.000000	  0.399759	  0.327733	  0.289300	  0.045894	  0.088620	
3.49	  0.624944	  0.627644	  0.104594	  0.493853	  0.776124	  0.000000	  0.775012	  1.000000	  0.000000	  0.355696	  0.000000	  0.401583	  0.325934	  0.290570	  0.045892	  0.088554	
3.4905	  0.626422	  0.629819	  0.105657	  0.489825	  0.769506	  0.000000	  0.771801	  0.999998	  0.000000	  0.359628	  0.000000	  0.403419	  0.324187	  0.291831	  0.045898	  0.088483	
3.491	  0.627832	  0.631964	  0.106735	  0.485806	  0.762818	  0.000000	  0.768551	  0.999924	  0.000000	  0.363583	  0.000000	  0.405267	  0.322493	  0.293085	  0.045911	  0.088407	
3.4915	  0.629176	  0.634081	  0.107830	  0.481798	  0.756064	  0.000000	  0.765267	  0.999780	  0.000000	  0.367560	  0.000000	  0.407128	  0.320852	  0.294331	  0.045932	  0.088326	
3.492	  0.630451	  0.636168	  0.108942	  0.477803	  0.749244	  0.000000	  0.761949	  0.999564	  0.000000	  0.371560	  0.000000	  0.409000	  0.319267	  0.295567	  0.045959	  0.088240	
3.4925	  0.631658	  0.638225	  0.110070	  0.473825	  0.742363	  0.000000	  0.758602	  0.999275	  0.000000	  0.375582	  0.000000	  0.410884	  0.317736	  0.296796	  0.045994	  0.088150	
3.493	  0.632796	  0.640252	  0.111215	  0.469864	  0.735424	  0.000000	  0.755225	  0.998914	  0.000000	  0.379626	  0.000000	  0.412779	  0.316262	  0.298015	  0.046036	  0.088056	
3.4935	  0.633864	  0.642247	  0.112376	  0.465923	  0.728429	  0.000000	  0.751823	  0.998479	  0.000000	  0.383694	  0.000000	  0.414685	  0.314844	  0.299225	  0.046086	  0.087957	
3.494	  0.634862	  0.644211	  0.113554	  0.462003	  0.721384	  0.000000	  0.748396	  0.997971	  0.000000	  0.387784	  0.000000	  0.416601	  0.313484	  0.300425	  0.046142	  0.087854	
3.4945	  0.635789	  0.646143	  0.114749	  0.458108	  0.714291	  0.000000	  0.744947	  0.997388	  0.000000	  0.391898	  0.000000	  0.418526	  0.312182	  0.301616	  0.046206	  0.087747	
3.495	  0.636646	  0.648043	  0.115960	  0.454238	  0.707154	  0.000000	  0.741477	  0.996730	  0.000000	  0.396036	  0.000000	  0.420461	  0.310938	  0.302797	  0.046276	  0.087637	
3.4955	  0.637432	  0.649909	  0.117188	  0.450396	  0.699977	  0.000000	  0.737988	  0.995996	  0.000000	  0.400196	  0.000000	  0.422405	  0.309753	  0.303967	  0.046354	  0.087523	
3.496	  0.638147	  0.651742	  0.118432	  0.446582	  0.692763	  0.000000	  0.734482	  0.995184	  0.000000	  0.404381	  0.000000	  0.424356	  0.308626	  0.305126	  0.046438	  0.087405	
3.4965	  0.638792	  0.653541	  0.119693	  0.442798	  0.685518	  0.000000	  0.730960	  0.994294	  0.000000	  0.408590	  0.000000	  0.426314	  0.307559	  0.306273	  0.046529	  0.087284	
3.497	  0.639368	  0.655305	  0.120971	  0.439047	  0.678243	  0.000000	  0.727423	  0.993324	  0.000000	  0.412822	  0.000000	  0.428279	  0.306552	  0.307409	  0.046627	  0.087160	
3.4975	  0.639875	  0.657035	  0.122265	  0.435329	  0.670944	  0.000000	  0.723872	  0.992271	  0.000000	  0.417078	  0.000000	  0.430248	  0.305604	  0.308532	  0.046732	  0.087033	
3.498	  0.640314	  0.658730	  0.123575	  0.431645	  0.663623	  0.000000	  0.720309	  0.991134	  0.000000	  0.421358	  0.000000	  0.432222	  0.304716	  0.309641	  0.046843	  0.086904	
3.4985	  0.640685	  0.660391	  0.124901	  0.427997	  0.656285	  0.000000	  0.716734	  0.989911	  0.000000	  0.425661	  0.000000	  0.434200	  0.303889	  0.310736	  0.046961	  0.086771	
